<svg width="35" height="36" viewBox="0 0 35 36" fill="none" xmlns="http://www.w3.org/2000/svg">
<g filter="url(#filter0_d_17:476)">
<rect x="1.45833" y="1.65365" width="32.0833" height="32.0833" rx="12.3958" fill="#FF9900"/>
<rect x="1.45833" y="1.65365" width="32.0833" height="32.0833" rx="12.3958" stroke="white" stroke-width="2.91667"/>
<rect x="1.45833" y="1.65365" width="32.0833" height="32.0833" rx="12.3958" stroke="#FF9900" stroke-width="2.91667"/>
<path d="M25.7657 12.4346C25.4533 12.1155 24.9468 12.1155 24.6343 12.4346L15.0498 22.2231L11.3657 18.4606C11.0533 18.1415 10.5468 18.1415 10.2343 18.4606C9.92189 18.7796 9.92189 19.2969 10.2343 19.616L14.4841 23.9561C14.7964 24.2752 15.3033 24.2749 15.6155 23.9561L25.7657 13.5901C26.0781 13.271 26.0781 12.7537 25.7657 12.4346Z" fill="white"/>
</g>
<defs>
<filter id="filter0_d_17:476" x="0" y="0.195312" width="35" height="35" filterUnits="userSpaceOnUse" color-interpolation-filters="sRGB">
<feFlood flood-opacity="0" result="BackgroundImageFix"/>
<feColorMatrix in="SourceAlpha" type="matrix" values="0 0 0 0 0 0 0 0 0 0 0 0 0 0 0 0 0 0 127 0" result="hardAlpha"/>
<feOffset/>
<feComposite in2="hardAlpha" operator="out"/>
<feColorMatrix type="matrix" values="0 0 0 0 0 0 0 0 0 0 0 0 0 0 0 0 0 0 0.25 0"/>
<feBlend mode="normal" in2="BackgroundImageFix" result="effect1_dropShadow_17:476"/>
<feBlend mode="normal" in="SourceGraphic" in2="effect1_dropShadow_17:476" result="shape"/>
</filter>
</defs>
</svg>
